<?xml version="1.0" standalone="no"?>
<!DOCTYPE svg PUBLIC "-//W3C//DTD SVG 20010904//EN"
 "http://www.w3.org/TR/2001/REC-SVG-20010904/DTD/svg10.dtd">
<svg version="1.0" xmlns="http://www.w3.org/2000/svg"
 width="512.000000pt" height="512.000000pt" viewBox="0 0 512.000000 512.000000"
 preserveAspectRatio="xMidYMid meet">

<g transform="translate(0.000000,512.000000) scale(0.100000,-0.100000)"
fill="#000000" stroke="none">
<path d="M1935 4789 c-210 -17 -412 -72 -605 -165 -136 -65 -216 -115 -328
-201 -282 -219 -497 -531 -601 -870 -160 -522 -76 -1049 243 -1518 79 -117
300 -339 426 -428 186 -131 432 -237 672 -289 89 -19 134 -22 328 -23 197 0
239 3 339 23 208 42 400 116 578 224 l91 55 604 -604 c677 -678 663 -666 796
-666 176 0 315 136 316 308 2 138 34 99 -657 792 l-621 622 38 57 c225 338
324 761 271 1156 -50 377 -208 703 -475 981 -256 267 -547 431 -901 511 -95
21 -346 49 -399 45 -8 -1 -60 -5 -115 -10z m291 -634 c274 -25 572 -197 748
-432 162 -216 235 -458 223 -737 -8 -176 -38 -294 -117 -451 -151 -301 -396
-498 -733 -588 -71 -19 -108 -21 -272 -21 -174 0 -198 2 -288 27 -414 112
-724 439 -812 857 -111 529 175 1073 670 1271 189 75 346 96 581 74z"/>
</g>
</svg>
