<?xml version="1.0" standalone="no"?>
<!DOCTYPE svg PUBLIC "-//W3C//DTD SVG 20010904//EN"
 "http://www.w3.org/TR/2001/REC-SVG-20010904/DTD/svg10.dtd">
<svg version="1.0" xmlns="http://www.w3.org/2000/svg"
 width="512.000000pt" height="512.000000pt" viewBox="0 0 512.000000 512.000000"
 preserveAspectRatio="xMidYMid meet">

<g transform="translate(0.000000,512.000000) scale(0.100000,-0.100000)"
fill="#000000" stroke="none">
<path d="M1950 5113 c-505 -38 -972 -253 -1330 -612 -569 -570 -763 -1386
-510 -2143 103 -310 272 -581 510 -818 326 -326 726 -527 1185 -595 129 -19
407 -22 540 -5 285 35 607 146 831 285 39 25 76 45 80 45 5 0 283 -274 619
-609 426 -425 624 -616 655 -632 62 -31 158 -31 220 0 27 14 104 83 191 170
127 127 148 153 164 200 21 65 17 131 -14 195 -17 35 -174 196 -637 654 l-614
609 57 94 c151 251 248 540 283 848 16 136 8 444 -15 571 -94 522 -378 992
-786 1305 -415 318 -929 476 -1429 438z m361 -839 c507 -82 921 -481 1034
-994 25 -118 31 -325 11 -450 -64 -398 -305 -740 -658 -930 -180 -97 -338
-139 -551 -147 -201 -8 -331 13 -512 82 -399 153 -697 508 -786 938 -24 117
-29 336 -10 448 45 265 171 510 361 699 295 296 693 423 1111 354z"/>
</g>
</svg>
